# xmcd
#
# Track frame offsets: 
#        150
#        25678
#        49130
#        78646
#        100621
#        129306
#        149480
#        164652
#        184567
#
# Disc length: 2790 seconds
#
# Revision: 12
# Processed by: cddbd v1.5.2PL0 Copyright (c) Steve Scherf et al.
# Submitted via: ExactAudioCopy v0.99pb5
#
DISCID=720ae409
DTITLE=Peter Gabriel - So
DYEAR=1986
DGENRE=Rock
TTITLE0=Red Rain
TTITLE1=Sledgehammer
TTITLE2=Don't Give Up
TTITLE3=That Voice Again
TTITLE4=Mercy Street
TTITLE5=Big Time
TTITLE6=We Do What We're Told -milgram's 37-
TTITLE7=This Is the Picture -excellent birds-
TTITLE8=In Your Eyes
EXTD=YEAR: 1986
EXTT0=
EXTT1=
EXTT2=
EXTT3=
EXTT4=
EXTT5=
EXTT6=
EXTT7=
EXTT8=
PLAYORDER=
